<?xml version="1.0" encoding="UTF-8" standalone="no"?>
<svg
   xmlns:dc="http://purl.org/dc/elements/1.1/"
   xmlns:cc="http://creativecommons.org/ns#"
   xmlns:rdf="http://www.w3.org/1999/02/22-rdf-syntax-ns#"
   xmlns:svg="http://www.w3.org/2000/svg"
   xmlns="http://www.w3.org/2000/svg"
   style="clip-rule:evenodd;fill-rule:evenodd;image-rendering:optimizeQuality;shape-rendering:geometricPrecision;text-rendering:geometricPrecision"
   height="512"
   width="512"
   id="svg4"
   version="1.1"
   viewBox="0 0 512 512.00002">
  <metadata
     id="metadata10">
    <rdf:RDF>
      <cc:Work
         rdf:about="">
        <dc:format>image/svg+xml</dc:format>
        <dc:type
           rdf:resource="http://purl.org/dc/dcmitype/StillImage" />
        <dc:title></dc:title>
      </cc:Work>
    </rdf:RDF>
  </metadata>
  <defs
     id="defs8" />
  <path
     id="path2"
     d="m 12.85,389.34999 h 28.73 c -4.48,-1.16 -7.85,-5.3 -7.85,-10.12 V 108.69 c 0,-5.73 4.72,-10.45 10.45,-10.45 h 420.89 c 5.73,0 10.45,4.72 10.45,10.45 v 270.49999 c 0,4.86 -3.32,8.95 -7.85,10.11 h 31.48 v 0.05 h 0.64 c 6.72,0 12.21,5.49 12.21,12.21 0,6.71 -5.52,12.2 -12.21,12.2 H 12.21 c -6.69,0 -12.21,-5.49 -12.21,-12.2 0,-6.72 5.49,-12.21 12.21,-12.21 z m 361.91,-128.17 c 4.59,2.63 8.46,6.81 10.76,12.51 1.07,2.62 1.8,5.58 2.12,8.9 -0.04,8 1.24,19.26 4.71,27.49 2.5,5.93 6.15,10.3 11.22,10.71 0.21,0.01 0.37,0.2 0.35,0.41 l -0.02,0.11 c -0.96,2.63 -5.24,4.61 -10.38,5.55 13.23,4.33 23.03,12.94 23.03,29.34 0,0.74 -0.6,1.35 -1.34,1.35 H 310.29 c -0.74,0 -1.35,-0.61 -1.35,-1.35 0,-15.42 9.11,-24.64 21.82,-29.07 -4.52,-1.06 -8.22,-3.19 -9.16,-5.84 -0.07,-0.2 0.03,-0.42 0.23,-0.48 l 0.1,-0.02 c 4.36,-0.36 7.36,-2.83 9.39,-6.35 2.06,-3.6 3.16,-8.33 3.7,-13.14 0.29,-2.54 0.47,-5.2 0.64,-7.89 0.85,-13.27 1.78,-27.59 16.85,-33.67 2.29,-0.93 4.71,-1.51 7.14,-1.75 5.2,-0.51 10.52,0.57 15.11,3.19 z M 156.32,181.12 c -5.26,9.61 -21.02,10.35 -28.26,0.66 l -0.04,0.01 c 2.27,-0.81 3.93,-1.96 4.47,-3.5 2.81,1.95 5.9,3.1 9.12,3.1 3.71,0 7.39,-1.55 10.69,-4.09 0.37,1.62 1.87,2.89 4.02,3.82 z m -35.89,2.02 c -5.41,1.16 -10.5,2.72 -13.96,4.75 -8.07,4.72 -7.64,7.39999 -9.58,16.45999 -0.96,4.5 -1.94,8.97 -1.87,13.52 h 19.51 v -4.59 c 0,-0.69 0.56,-1.25 1.25,-1.25 0.68,0 1.24,0.56 1.24,1.25 v 4.59 h 51.09 v -4.59 c 0,-0.69 0.56,-1.25 1.24,-1.25 0.69,0 1.25,0.56 1.25,1.25 v 4.59 h 19.82 c -0.05,-3.86 -1.05,-7.23 -1.63,-10.85 -1.52,-9.47 -1.53,-14.35999 -10.5,-19.06999 -3.99,-2.1 -9.74,-3.74 -15.35,-5.19 8.28,1.04 18.54,-0.56 19.89,-4.39 -12.16,-0.99 -15.98,-19.67 -15.9,-33.26 -1.96,-20.01 -19.92,-27.57 -33.8,-21.95 -17.49,7.06 -15.19,22.52 -16.85,37.05 -1.09,9.49 -4.32,17.44 -13.13,18.16 1.24,3.48 9.72,5.19 17.28,4.77 z m 27.2,-47.01 c -8.17,8.27 -16.79,11.51 -25.88,13.8 -0.13,1.09 -0.09,0.33 -0.09,1.46 0,12.5 9.43,27.51 19.95,27.51 10.52,0 21.17,-15.01 21.17,-27.51 0,-2.43 -0.29,-3.4 -0.89,-5.59 -7.94,-0.09 -11.04,-4.09 -14.26,-9.67 z m 9.05,186.74999 c 3.76,-3.53 6.64,-6.26 6.76,-12.15 l 0.52,0.06 c 1.16,0.06 1.92,-0.13 2.54,-0.62 0.58,-0.47 0.85,-1.06 1.15,-1.87 l 1.9,-5.36 c 0.38,-1.44 0.37,-2.63 0.08,-3.55 -0.31,-0.96 -0.92,-1.65 -1.7,-2.07 -0.72,-0.38 -1.58,-0.53 -2.46,-0.46 -0.44,0.04 -0.91,0.12 -1.38,0.27 l 0.07,-0.59 c 11.94,-10.01 5.95,-33.8 -9.03,-34.58 -12.41,-15.78 -28.96,-6.13 -43.31,11.6 7.58,2.3 5.94,14.42 6.5,21.4 l 1.04,0.69 c -5.22,-0.15 -3.94,8.82 -2.8,11.55 l 0.02,0.07 c 0.52,1.21 1.3,2.29 2.4,2.91 0.81,0.46 1.58,0.58 2.5,0.56 0.59,6.5 3.69,9.16 7.38,12.35 l 1.42,1.23 0.16,0.15 c -2.93,9.96 -11.53,11.07 -20.05,12.17 -11.65,1.49 -23.22,2.98 -23.22,23.36 0,0.78 0.65,1.43 1.43,1.43 l 108.24,-0.47 c 0.78,0 1.41,-0.64 1.43,-1.42 0,-19.49 -10.91,-21.52 -22.01,-23.58 -8.22,-1.52 -16.57,-3.08 -19.58,-13.08 z m -17.42,3.47 c 1.81,0.37 3.7,0.41 5.51,0.17 1.24,-0.16 2.45,-0.45 3.56,-0.84 l 0.02,-0.01 c 1.67,-0.78 3.3,-1.92 4.88,-3.44 l 0.74,-0.71 0.05,-0.05 0.15,-0.14 0.05,-0.04 0.45,-0.43 c 3.68,-3.45 6.37,-5.99 5.86,-12.14 -0.02,-0.3 0.05,-0.62 0.22,-0.89 0.43,-0.65 1.32,-0.84 1.97,-0.42 l 0.73,0.38 0.69,0.17 0.58,-0.01 2.07,-5.76 c 0.24,-0.88 0.26,-1.52 0.13,-1.93 a 0.738,0.738 0 0 0 -0.34,-0.44 c -0.21,-0.11 -0.53,-0.15 -0.88,-0.12 -0.8,0.06 -1.75,0.45 -2.56,1.07 -0.3,0.22 -0.69,0.33 -1.09,0.26 -0.77,-0.12 -1.3,-0.87 -1.17,-1.64 1.34,-7.82 0.72,-12.92 -0.94,-16.4 -1.46,-3.04 -3.79,-4.89 -6.32,-6.27 -5.6,4.29 -9.56,4.79 -13.49,5.27 -3.23,0.39 -6.46,0.8 -10.72,3.71 l -0.09,0.07 c -2.04,1.41 -3.4,3.12 -4.1,5.09 -0.72,2.03 -0.77,4.41 -0.18,7.1 a 1.422,1.422 0 0 1 -1.88,1.66 l -1.31,-0.48 c -1.67,-0.58 -2.86,-0.84 -3.32,0.21 l -0.08,3.41 c 0.05,0.98 0.27,2.25 0.71,3.32 l 0.04,0.08 c 0.29,0.68 0.69,1.26 1.18,1.55 0.74,0.42 1.61,0.07 2.39,-0.06 0.78,-0.02 1.44,0.6 1.45,1.38 0.16,6.45 3.03,8.92 6.51,11.92 l 1.44,1.25 c 2.29,2.04 4.66,3.43 7.04,4.14 l 0.03,0.01 z m 15.24,-1.03 -0.34,0.29 c -4.55,5.4 -16.19,5.53 -21.07,1.26 l -0.37,-0.24 -0.22,0.59 c -1.3,4.56 -4.29,7.75 -8.62,9.86 13.05,7.97 25.93,7.73 38.6,-1.66 -4.72,-2.15 -7.18,-5.52 -7.89,-9.85 z M 334.82,139.37 c 13.17,-16.27 28.34,-25.12 39.73,-10.65 13.1,0.69 18.71,20.57 9.7,30.37 0.65,-0.01 1.27,0.12 1.79,0.42 0.68,0.37 1.2,0.98 1.47,1.84 0.25,0.85 0.25,1.96 -0.12,3.33 l -0.51,1.92 c -0.59,2.59 -1.28,5.43 -4.23,5.27 l -0.47,-0.05 c -0.12,5.41 -2.76,7.9 -6.22,11.15 0.93,1.36 1.87,2.71 2.97,3.98 l 0.01,-0.01 c 5.85,5.27 20.93,6.32 27.37,9.91999 2.04,1.13 3.88,2.58 5.36,4.54 3.7,4.89 4.3,7.82 5.04,13.72 0.1,0.41 0.16,0.81 0.16,1.22 0,0.81 -0.67,1.47 -1.48,1.47 H 310.11 c -0.81,0 -1.48,-0.66 -1.48,-1.47 0,-0.41 0.07,-0.83 0.16,-1.24 0.75,-5.89 1.35,-8.82 5.05,-13.7 1.48,-1.96 3.32,-3.4 5.36,-4.54 6.23,-3.47999 20.43,-4.57999 26.77,-9.41999 0.4,-0.68 0.81,-1.53 1.21,-2.44 0.51,-1.17 0.99,-2.43 1.39,-3.5 -2.51,-2.33 -4.45,-4.85 -4.88,-9.66 h -0.3 a 4.17,4.17 0 0 1 -2,-0.52 c -1.38,-0.79 -2.15,-2.3 -2.52,-4.02 -0.46,-2.18 -0.31,-4.78 -0.08,-6.41 l 0.06,-0.25 c 0.49,-1.41 1.1,-2.16 1.88,-2.47 -0.34,-6.5 0.75,-16.78 -5.91,-18.8 z m 39.5,45.17 c -3.43,3.19 -7.16,4.74 -10.94,4.74 -3.96,-0.01 -7.94,-1.7 -11.63,-4.98 l -1.29,-1.13 -0.09,-0.08 c -0.34,0.91 -0.73,1.88 -1.14,2.81 -0.55,1.26 -1.14,2.45 -1.72,3.31 6.21,12.59999 24.58,13.03999 30.54,0.07 -1.49,-1.51 -2.62,-3.13 -3.73,-4.74 z m -1.54,-43.63 c -3,3.02 -6.19,3.9 -9.31,4.16 -0.91,0.17 -1.8,0.28 -2.68,0.38 -2.98,0.37 -5.97,0.75 -9.92,3.48 -1.87,1.29 -3.13,2.87 -3.77,4.7 -0.64,1.85 -0.67,4.03 -0.14,6.5 0.05,0.24 0.04,0.49 -0.05,0.73 -0.25,0.67 -1,1.02 -1.68,0.77 l -1.57,-0.57 c -1.19,-0.41 -1.95,-0.53 -2.31,0.33 -0.19,1.43 -0.3,3.6 0.07,5.36 0.23,1.05 0.62,1.94 1.25,2.3 0.23,0.12 0.49,0.18 0.75,0.19 0.32,0 0.7,-0.07 1.09,-0.19 l 0.36,-0.06 c 0.71,-0.01 1.32,0.56 1.33,1.27 0.15,5.91 2.78,8.18 5.97,10.93 l 1.32,1.15 c 3.21,2.85 6.59,4.33 9.89,4.33 3.22,-0.01 6.43,-1.42 9.42,-4.3 l 1.36,-1.29 c 3.35,-3.15 5.81,-5.47 5.34,-11.1 -0.02,-0.28 0.05,-0.57 0.21,-0.82 0.39,-0.6 1.2,-0.77 1.81,-0.38 l 0.7,0.36 0.53,0.13 c 0.82,0.04 1.24,-1.68 1.59,-3.25 l 0.53,-2.02 c 0.24,-0.87 0.26,-1.49 0.14,-1.89 l -0.23,-0.32 c -0.15,-0.08 -0.39,-0.12 -0.66,-0.09 -0.66,0.06 -1.45,0.4 -2.19,0.95 -0.28,0.23 -0.65,0.34 -1.04,0.28 -0.7,-0.12 -1.18,-0.8 -1.06,-1.51 1.23,-7.17 0.66,-11.86 -0.87,-15.05 -1.33,-2.79 -3.47,-4.49 -5.79,-5.75 z m 10.98,186.37999 c -1.38,-0.14 -2.72,-0.35 -3.97,-0.66 -1.49,-0.37 -2.85,-0.88 -4.01,-1.54 l -0.07,-0.04 c -2.7,-1.37 -4.36,-2.75 -4.15,-6.83 -2.91,2.27 -5.9,3.44 -8.95,3.46 -3.01,0.03 -6.09,-1.05 -9.26,-3.24 -0.3,7.03 -4.65,7.78 -9.99,8.7 l -0.12,0.03 c -0.78,0.21 -1.57,0.36 -2.39,0.48 -0.67,0.1 -1.36,0.16 -2.05,0.2 -0.99,0.16 -1.99,0.33 -2.98,0.55 8.78,8.53 17.62,13.3 26.52,13.56 8.91,0.27 18.03,-3.99 27.36,-13.51 -2,-0.47 -4.02,-0.81 -5.94,-1.16 z m -21.5,-7.96 c 3.56,0.14 7.81,-1.22 12.4,-6.08 2.86,-3.17 5.26,-6.52 6.98,-10.47 1.15,-5.42 1.21,-11.12 0,-17.15 -5.54,-2.57 -9.16,-8.21 -11.01,-16.69 -2.22,16.14 -22.04,15.45 -27.03,18.38 0,4.31 -0.31,7.86 0.05,11.39 0.99,9.5 8.21,20.18 18.61,20.62 z M 277.13,109.81 v 11.37 c 0,2.03 -1.69,3.72 -3.73,3.72 H 260.29 V 237.93999 H 463.9 V 109.81 Z m -25.42,15.09 h -13.1 c -2.04,0 -3.73,-1.68 -3.73,-3.73 V 109.81 H 46.8 V 237.93999 H 251.71 Z M 256,110.86 c 2.18,0 3.95,1.77 3.95,3.95 0,2.18 -1.77,3.95 -3.95,3.95 -2.18,0 -3.95,-1.77 -3.95,-3.95 0,-2.18 1.77,-3.95 3.95,-3.95 z M 463.9,246.51999 H 260.29 v 132.39 H 463.9 Z m -212.19,132.39 v -132.39 H 46.8 v 132.39 z" />
</svg>
